<svg clip-rule="evenodd" fill-rule="evenodd" height="2048" image-rendering="optimizeQuality" shape-rendering="geometricPrecision" text-rendering="geometricPrecision" viewBox="0 0 2048 2048" width="2048" xmlns="http://www.w3.org/2000/svg"><path d="m0 0h2048v2048h-2048z" fill="#424242"/><g fill="#fffffe" fill-rule="nonzero"><path d="m411.933 255.997h1224.13 32.0008v32.0008 110.776 32.0008h-32.0008-62.1378v1329.23 32.0008h-32.0008-129.861-32.0008v-32.0008-1329.23h-849.895-118.238-32.0008v-32.0008-110.776-32.0008h32.0008zm1192.13 64.0016h-1160.13v46.7741h86.2371 881.896 32.0008v32.0008 1329.23h65.8595v-1329.23-32.0008h32.0008 62.1378v-46.7741z"/><path d="m548.067 384.22v161.304 94.473h-64.001v-94.473-161.304z"/><path d="m517.047 601.023c36.0343 0 66.7524 25.3925 87.2776 66.4441 17.2051 34.4103 27.8481 81.0662 27.8481 131.806 0 50.7402-10.6429 97.395-27.8481 131.806-20.5252 41.0516-51.2433 66.4441-87.2776 66.4441-36.0378 0-66.7524-25.3925-87.2776-66.4441-17.2063-34.4114-27.8481-81.0662-27.8481-131.806 0-50.7402 10.6417-97.3961 27.8481-131.806 20.5252-41.0516 51.2398-66.4441 87.2776-66.4441zm30.2776 94.9442c-9.55749-19.1162-20.4071-30.9425-30.2776-30.9425-9.87048 0-20.7201 11.8264-30.2776 30.9425-12.8799 25.7587-20.8465 62.2312-20.8465 103.306 0 41.0752 7.96654 77.5477 20.8465 103.306 9.55749 19.1162 20.4071 30.9425 30.2776 30.9425 9.87048 0 20.7201-11.8264 30.2776-30.9425 12.8788-25.7587 20.8465-62.2312 20.8465-103.306 0-41.0752-7.96772-77.5489-20.8465-103.306z"/><path d="m503.921 586.141c-3.08268.0767717-8.34568.152362-8.24056.0838583l8.24056 12.6862v-12.7701zm26.5099 53.5831c-9.43465 6.11457-15.8847 10.3004-26.5099 10.3004v-51.1134l-8.24056-12.6862c20.0291-12.985 61.7162-40.0087 111.872-23.4378 20.3268 6.71457 29.5642 17.1307 38.0091 26.6563 3.75 4.22835 6.7441 7.60276 50.0056-10.8213l24.9992 58.7504c-85.4481 36.3898-102.004 17.7236-122.754-5.67874-2.85355-3.21851-5.97638-6.74056-10.2602-8.15552-21.2977-7.03583-45.4949 8.64922-57.1205 16.1858z"/><path d="m1391.57 760.497-404.753-338.874 41.003-48.999 404.75 338.874z"/></g><path d="m0 0h2048v2048h-2048z" fill="none"/></svg>